<?xml version="1.0" encoding="UTF-8" standalone="no"?>
<!DOCTYPE svg PUBLIC "-//W3C//DTD SVG 1.1//EN"
 "http://www.w3.org/Graphics/SVG/1.1/DTD/svg11.dtd">
<!-- Generated by graphviz version 2.38.0 (20140413.2041)
 -->
<!-- Title: %3 Pages: 1 -->
<svg width="1686pt" height="100pt"
 viewBox="0.00 0.00 1686.00 100.00" xmlns="http://www.w3.org/2000/svg" xmlns:xlink="http://www.w3.org/1999/xlink">
<g id="graph0" class="graph" transform="scale(1 1) rotate(0) translate(4 96)">
<title>%3</title>
<polygon fill="white" stroke="none" points="-4,4 -4,-96 1682,-96 1682,4 -4,4"/>
<!-- 140207905948392 -->
<g id="node1" class="node"><title>140207905948392</title>
<polygon fill="none" stroke="black" points="603,-55.5 603,-91.5 1075,-91.5 1075,-55.5 603,-55.5"/>
<text text-anchor="middle" x="613" y="-69.8" font-family="Times,serif" font-size="14.00"> </text>
<polyline fill="none" stroke="black" points="623,-55.5 623,-91.5 "/>
<text text-anchor="middle" x="663.5" y="-69.8" font-family="Times,serif" font-size="14.00">shape:(2, 2)</text>
<polyline fill="none" stroke="black" points="704,-55.5 704,-91.5 "/>
<text text-anchor="middle" x="796.5" y="-69.8" font-family="Times,serif" font-size="14.00">data [[ 0.55 0.72] [ 0.60 0.54]]</text>
<polyline fill="none" stroke="black" points="889,-55.5 889,-91.5 "/>
<text text-anchor="middle" x="982" y="-69.8" font-family="Times,serif" font-size="14.00">grad:[[ 0.00 0.00] [ 0.00 0.00]]</text>
</g>
<!-- 140207484352272+ -->
<g id="node3" class="node"><title>140207484352272+</title>
<ellipse fill="none" stroke="black" cx="1143" cy="-45.5" rx="27" ry="18"/>
<text text-anchor="middle" x="1143" y="-41.8" font-family="Times,serif" font-size="14.00">+</text>
</g>
<!-- 140207905948392&#45;&gt;140207484352272+ -->
<g id="edge4" class="edge"><title>140207905948392&#45;&gt;140207484352272+</title>
<path fill="none" stroke="black" d="M1034.25,-55.4901C1061.49,-52.9641 1086.69,-50.6284 1105.85,-48.8516"/>
<polygon fill="black" stroke="black" points="1106.22,-52.3327 1115.85,-47.9243 1105.57,-45.3625 1106.22,-52.3327"/>
</g>
<!-- 140207484352272 -->
<g id="node2" class="node"><title>140207484352272</title>
<polygon fill="none" stroke="black" points="1206,-27.5 1206,-63.5 1678,-63.5 1678,-27.5 1206,-27.5"/>
<text text-anchor="middle" x="1216" y="-41.8" font-family="Times,serif" font-size="14.00"> </text>
<polyline fill="none" stroke="black" points="1226,-27.5 1226,-63.5 "/>
<text text-anchor="middle" x="1266.5" y="-41.8" font-family="Times,serif" font-size="14.00">shape:(2, 2)</text>
<polyline fill="none" stroke="black" points="1307,-27.5 1307,-63.5 "/>
<text text-anchor="middle" x="1399.5" y="-41.8" font-family="Times,serif" font-size="14.00">data [[ 0.73 1.13] [ 0.79 1.34]]</text>
<polyline fill="none" stroke="black" points="1492,-27.5 1492,-63.5 "/>
<text text-anchor="middle" x="1585" y="-41.8" font-family="Times,serif" font-size="14.00">grad:[[ 0.00 0.00] [ 0.00 0.00]]</text>
</g>
<!-- 140207484352272+&#45;&gt;140207484352272 -->
<g id="edge1" class="edge"><title>140207484352272+&#45;&gt;140207484352272</title>
<path fill="none" stroke="black" d="M1170.1,-45.5C1177.4,-45.5 1185.98,-45.5 1195.5,-45.5"/>
<polygon fill="black" stroke="black" points="1195.76,-49.0001 1205.76,-45.5 1195.76,-42.0001 1195.76,-49.0001"/>
</g>
<!-- 140207591366160 -->
<g id="node4" class="node"><title>140207591366160</title>
<polygon fill="none" stroke="black" points="598,-0.5 598,-36.5 1080,-36.5 1080,-0.5 598,-0.5"/>
<text text-anchor="middle" x="613" y="-14.8" font-family="Times,serif" font-size="14.00">^2</text>
<polyline fill="none" stroke="black" points="628,-0.5 628,-36.5 "/>
<text text-anchor="middle" x="668.5" y="-14.8" font-family="Times,serif" font-size="14.00">shape:(2, 2)</text>
<polyline fill="none" stroke="black" points="709,-0.5 709,-36.5 "/>
<text text-anchor="middle" x="801.5" y="-14.8" font-family="Times,serif" font-size="14.00">data [[ 0.18 0.42] [ 0.19 0.80]]</text>
<polyline fill="none" stroke="black" points="894,-0.5 894,-36.5 "/>
<text text-anchor="middle" x="987" y="-14.8" font-family="Times,serif" font-size="14.00">grad:[[ 0.00 0.00] [ 0.00 0.00]]</text>
</g>
<!-- 140207591366160&#45;&gt;140207484352272+ -->
<g id="edge5" class="edge"><title>140207591366160&#45;&gt;140207484352272+</title>
<path fill="none" stroke="black" d="M1041.44,-36.5094C1065.81,-38.6883 1088.2,-40.6901 1105.64,-42.249"/>
<polygon fill="black" stroke="black" points="1105.55,-45.7555 1115.83,-43.16 1106.18,-38.7833 1105.55,-45.7555"/>
</g>
<!-- 140207591366160^2 -->
<g id="node5" class="node"><title>140207591366160^2</title>
<ellipse fill="none" stroke="black" cx="535" cy="-18.5" rx="27" ry="18"/>
<text text-anchor="middle" x="535" y="-14.8" font-family="Times,serif" font-size="14.00">^2</text>
</g>
<!-- 140207591366160^2&#45;&gt;140207591366160 -->
<g id="edge2" class="edge"><title>140207591366160^2&#45;&gt;140207591366160</title>
<path fill="none" stroke="black" d="M562.01,-18.5C569.414,-18.5 578.141,-18.5 587.847,-18.5"/>
<polygon fill="black" stroke="black" points="587.868,-22.0001 597.868,-18.5 587.868,-15.0001 587.868,-22.0001"/>
</g>
<!-- 140207979981288 -->
<g id="node6" class="node"><title>140207979981288</title>
<polygon fill="none" stroke="black" points="0,-0.5 0,-36.5 472,-36.5 472,-0.5 0,-0.5"/>
<text text-anchor="middle" x="10" y="-14.8" font-family="Times,serif" font-size="14.00"> </text>
<polyline fill="none" stroke="black" points="20,-0.5 20,-36.5 "/>
<text text-anchor="middle" x="60.5" y="-14.8" font-family="Times,serif" font-size="14.00">shape:(2, 2)</text>
<polyline fill="none" stroke="black" points="101,-0.5 101,-36.5 "/>
<text text-anchor="middle" x="193.5" y="-14.8" font-family="Times,serif" font-size="14.00">data [[ 0.42 0.65] [ 0.44 0.89]]</text>
<polyline fill="none" stroke="black" points="286,-0.5 286,-36.5 "/>
<text text-anchor="middle" x="379" y="-14.8" font-family="Times,serif" font-size="14.00">grad:[[ 0.00 0.00] [ 0.00 0.00]]</text>
</g>
<!-- 140207979981288&#45;&gt;140207591366160^2 -->
<g id="edge3" class="edge"><title>140207979981288&#45;&gt;140207591366160^2</title>
<path fill="none" stroke="black" d="M472.101,-18.5C481.433,-18.5 490.064,-18.5 497.736,-18.5"/>
<polygon fill="black" stroke="black" points="497.917,-22.0001 507.917,-18.5 497.917,-15.0001 497.917,-22.0001"/>
</g>
</g>
</svg>
