<?xml version="1.0" encoding="UTF-8" standalone="no"?>
<!DOCTYPE svg PUBLIC "-//W3C//DTD SVG 1.1//EN"
 "http://www.w3.org/Graphics/SVG/1.1/DTD/svg11.dtd">
<!-- Generated by graphviz version 2.38.0 (20140413.2041)
 -->
<!-- Title: %3 Pages: 1 -->
<svg width="2019pt" height="100pt"
 viewBox="0.00 0.00 2019.00 100.00" xmlns="http://www.w3.org/2000/svg" xmlns:xlink="http://www.w3.org/1999/xlink">
<g id="graph0" class="graph" transform="scale(1 1) rotate(0) translate(4 96)">
<title>%3</title>
<polygon fill="white" stroke="none" points="-4,4 -4,-96 2015,-96 2015,4 -4,4"/>
<!-- 139714385077248 -->
<g id="node1" class="node"><title>139714385077248</title>
<polygon fill="none" stroke="black" points="0,-55.5 0,-91.5 583,-91.5 583,-55.5 0,-55.5"/>
<text text-anchor="middle" x="10" y="-69.8" font-family="Times,serif" font-size="14.00"> </text>
<polyline fill="none" stroke="black" points="20,-55.5 20,-91.5 "/>
<text text-anchor="middle" x="60.5" y="-69.8" font-family="Times,serif" font-size="14.00">shape:(2, 3)</text>
<polyline fill="none" stroke="black" points="101,-55.5 101,-91.5 "/>
<text text-anchor="middle" x="221" y="-69.8" font-family="Times,serif" font-size="14.00">data [[ 0.55 0.72 0.60] [ 0.54 0.42 0.65]]</text>
<polyline fill="none" stroke="black" points="341,-55.5 341,-91.5 "/>
<text text-anchor="middle" x="462" y="-69.8" font-family="Times,serif" font-size="14.00">grad:[[ 0.00 0.00 0.00] [ 0.00 0.00 0.00]]</text>
</g>
<!-- 139713954559312* -->
<g id="node6" class="node"><title>139713954559312*</title>
<ellipse fill="none" stroke="black" cx="646" cy="-73.5" rx="27" ry="18"/>
<text text-anchor="middle" x="646" y="-69.8" font-family="Times,serif" font-size="14.00">*</text>
</g>
<!-- 139714385077248&#45;&gt;139713954559312* -->
<g id="edge4" class="edge"><title>139714385077248&#45;&gt;139713954559312*</title>
<path fill="none" stroke="black" d="M583.196,-73.5C592.563,-73.5 601.17,-73.5 608.796,-73.5"/>
<polygon fill="black" stroke="black" points="608.901,-77.0001 618.901,-73.5 608.901,-70.0001 608.901,-77.0001"/>
</g>
<!-- 139714450258464 -->
<g id="node2" class="node"><title>139714450258464</title>
<polygon fill="none" stroke="black" points="0,-0.5 0,-36.5 583,-36.5 583,-0.5 0,-0.5"/>
<text text-anchor="middle" x="10" y="-14.8" font-family="Times,serif" font-size="14.00"> </text>
<polyline fill="none" stroke="black" points="20,-0.5 20,-36.5 "/>
<text text-anchor="middle" x="60.5" y="-14.8" font-family="Times,serif" font-size="14.00">shape:(2, 3)</text>
<polyline fill="none" stroke="black" points="101,-0.5 101,-36.5 "/>
<text text-anchor="middle" x="221" y="-14.8" font-family="Times,serif" font-size="14.00">data [[ 0.44 0.89 0.96] [ 0.38 0.79 0.53]]</text>
<polyline fill="none" stroke="black" points="341,-0.5 341,-36.5 "/>
<text text-anchor="middle" x="462" y="-14.8" font-family="Times,serif" font-size="14.00">grad:[[ 0.00 0.00 0.00] [ 0.00 0.00 0.00]]</text>
</g>
<!-- 139714450258464&#45;&gt;139713954559312* -->
<g id="edge5" class="edge"><title>139714450258464&#45;&gt;139713954559312*</title>
<path fill="none" stroke="black" d="M537.562,-36.5268C553.03,-39.3872 568.285,-42.6893 583,-46.5 593.852,-49.3104 605.234,-53.7805 615.241,-58.2812"/>
<polygon fill="black" stroke="black" points="613.812,-61.4767 624.352,-62.5526 616.783,-55.1386 613.812,-61.4767"/>
</g>
<!-- 139713954559368^3 -->
<g id="node8" class="node"><title>139713954559368^3</title>
<ellipse fill="none" stroke="black" cx="646" cy="-18.5" rx="27" ry="18"/>
<text text-anchor="middle" x="646" y="-14.8" font-family="Times,serif" font-size="14.00">^3</text>
</g>
<!-- 139714450258464&#45;&gt;139713954559368^3 -->
<g id="edge8" class="edge"><title>139714450258464&#45;&gt;139713954559368^3</title>
<path fill="none" stroke="black" d="M583.196,-18.5C592.563,-18.5 601.17,-18.5 608.796,-18.5"/>
<polygon fill="black" stroke="black" points="608.901,-22.0001 618.901,-18.5 608.901,-15.0001 608.901,-22.0001"/>
</g>
<!-- 139713957083904 -->
<g id="node3" class="node"><title>139713957083904</title>
<polygon fill="none" stroke="black" points="1428,-27.5 1428,-63.5 2011,-63.5 2011,-27.5 1428,-27.5"/>
<text text-anchor="middle" x="1438" y="-41.8" font-family="Times,serif" font-size="14.00"> </text>
<polyline fill="none" stroke="black" points="1448,-27.5 1448,-63.5 "/>
<text text-anchor="middle" x="1488.5" y="-41.8" font-family="Times,serif" font-size="14.00">shape:(2, 3)</text>
<polyline fill="none" stroke="black" points="1529,-27.5 1529,-63.5 "/>
<text text-anchor="middle" x="1649" y="-41.8" font-family="Times,serif" font-size="14.00">data [[ 0.32 1.35 1.48] [ 0.27 0.83 0.49]]</text>
<polyline fill="none" stroke="black" points="1769,-27.5 1769,-63.5 "/>
<text text-anchor="middle" x="1890" y="-41.8" font-family="Times,serif" font-size="14.00">grad:[[ 0.00 0.00 0.00] [ 0.00 0.00 0.00]]</text>
</g>
<!-- 139713957083904+ -->
<g id="node4" class="node"><title>139713957083904+</title>
<ellipse fill="none" stroke="black" cx="1365" cy="-45.5" rx="27" ry="18"/>
<text text-anchor="middle" x="1365" y="-41.8" font-family="Times,serif" font-size="14.00">+</text>
</g>
<!-- 139713957083904+&#45;&gt;139713957083904 -->
<g id="edge1" class="edge"><title>139713957083904+&#45;&gt;139713957083904</title>
<path fill="none" stroke="black" d="M1392.21,-45.5C1399.57,-45.5 1408.25,-45.5 1417.95,-45.5"/>
<polygon fill="black" stroke="black" points="1417.99,-49.0001 1427.99,-45.5 1417.99,-42.0001 1417.99,-49.0001"/>
</g>
<!-- 139713954559312 -->
<g id="node5" class="node"><title>139713954559312</title>
<polygon fill="none" stroke="black" points="712.5,-55.5 712.5,-91.5 1298.5,-91.5 1298.5,-55.5 712.5,-55.5"/>
<text text-anchor="middle" x="724" y="-69.8" font-family="Times,serif" font-size="14.00">*</text>
<polyline fill="none" stroke="black" points="735.5,-55.5 735.5,-91.5 "/>
<text text-anchor="middle" x="776" y="-69.8" font-family="Times,serif" font-size="14.00">shape:(2, 3)</text>
<polyline fill="none" stroke="black" points="816.5,-55.5 816.5,-91.5 "/>
<text text-anchor="middle" x="936.5" y="-69.8" font-family="Times,serif" font-size="14.00">data [[ 0.24 0.64 0.58] [ 0.21 0.34 0.34]]</text>
<polyline fill="none" stroke="black" points="1056.5,-55.5 1056.5,-91.5 "/>
<text text-anchor="middle" x="1177.5" y="-69.8" font-family="Times,serif" font-size="14.00">grad:[[ 0.00 0.00 0.00] [ 0.00 0.00 0.00]]</text>
</g>
<!-- 139713954559312&#45;&gt;139713957083904+ -->
<g id="edge7" class="edge"><title>139713954559312&#45;&gt;139713957083904+</title>
<path fill="none" stroke="black" d="M1236.45,-55.4901C1271.95,-52.7098 1304.5,-50.16 1327.84,-48.3323"/>
<polygon fill="black" stroke="black" points="1328.19,-51.8154 1337.89,-47.5452 1327.64,-44.8368 1328.19,-51.8154"/>
</g>
<!-- 139713954559312*&#45;&gt;139713954559312 -->
<g id="edge2" class="edge"><title>139713954559312*&#45;&gt;139713954559312</title>
<path fill="none" stroke="black" d="M673.288,-73.5C681.374,-73.5 691.054,-73.5 701.938,-73.5"/>
<polygon fill="black" stroke="black" points="702.26,-77.0001 712.26,-73.5 702.26,-70.0001 702.26,-77.0001"/>
</g>
<!-- 139713954559368 -->
<g id="node7" class="node"><title>139713954559368</title>
<polygon fill="none" stroke="black" points="709,-0.5 709,-36.5 1302,-36.5 1302,-0.5 709,-0.5"/>
<text text-anchor="middle" x="724" y="-14.8" font-family="Times,serif" font-size="14.00">^3</text>
<polyline fill="none" stroke="black" points="739,-0.5 739,-36.5 "/>
<text text-anchor="middle" x="779.5" y="-14.8" font-family="Times,serif" font-size="14.00">shape:(2, 3)</text>
<polyline fill="none" stroke="black" points="820,-0.5 820,-36.5 "/>
<text text-anchor="middle" x="940" y="-14.8" font-family="Times,serif" font-size="14.00">data [[ 0.08 0.71 0.89] [ 0.06 0.50 0.15]]</text>
<polyline fill="none" stroke="black" points="1060,-0.5 1060,-36.5 "/>
<text text-anchor="middle" x="1181" y="-14.8" font-family="Times,serif" font-size="14.00">grad:[[ 0.00 0.00 0.00] [ 0.00 0.00 0.00]]</text>
</g>
<!-- 139713954559368&#45;&gt;139713957083904+ -->
<g id="edge6" class="edge"><title>139713954559368&#45;&gt;139713957083904+</title>
<path fill="none" stroke="black" d="M1244.96,-36.5094C1277.17,-38.9423 1306.46,-41.1545 1327.93,-42.7757"/>
<polygon fill="black" stroke="black" points="1327.88,-46.2819 1338.11,-43.545 1328.41,-39.3017 1327.88,-46.2819"/>
</g>
<!-- 139713954559368^3&#45;&gt;139713954559368 -->
<g id="edge3" class="edge"><title>139713954559368^3&#45;&gt;139713954559368</title>
<path fill="none" stroke="black" d="M673.288,-18.5C680.528,-18.5 689.046,-18.5 698.562,-18.5"/>
<polygon fill="black" stroke="black" points="698.828,-22.0001 708.828,-18.5 698.828,-15.0001 698.828,-22.0001"/>
</g>
</g>
</svg>
